PathFileType	4	(X/Y/Z)	S01_0004_Gait_markers.trc
DataRate	CameraRate	NumFrames	NumMarkers	Units	OrigDataRate	OrigDataStartFrame	OrigNumFrames
250.000000	250.000000	4	54	mm	250.000000	0	320
Frame#	Time	HEAD_ANT			R_HEAD			L_HEAD			C7			R_BACK			L_BACK			STERNUM			R_ACROMION			R_HUM_PROX			R_HUM_ANT			R_HUM_POST			R_ELBOW_LAT			R_ELBOW_MED			R_FOREARM			R_WIRST_LAT			R_WRITS_MED			R_HAND			L_ACROMION			L_HUM_PROX			L_HUM_ANT			L_HUM_POST			L_ELBOW_LAT			L_ELBOW_MED			L_FOREARM			L_WRIST_LAT			L_WIRST_MED			L_HAND			R_ILIAC			SACRUM			L_ILIAC			R_GTROCH			R_THIGH__1			R_THIGH_2			R_THIGH_3			R_THIGH_4			R_SHANK_1			R_SHANK_2			R_SHANK_3			R_SHANK_4			R_HEEL			R_FOOT_LAT			R_FOOT_MED			L_GTROCH			L_THIGH_1			L_THIGH_2			L_THIGH_3			L_THIGH_4			L_SHANK_1			L_SHANK_2			L_SHANK_3			L_SHANK_4			L_HEEL			L_FOOT_LAT			L_FOOT_MED			
		X1	Y1	Z1	X2	Y2	Z2	X3	Y3	Z3	X4	Y4	Z4	X5	Y5	Z5	X6	Y6	Z6	X7	Y7	Z7	X8	Y8	Z8	X9	Y9	Z9	X10	Y10	Z10	X11	Y11	Z11	X12	Y12	Z12	X13	Y13	Z13	X14	Y14	Z14	X15	Y15	Z15	X16	Y16	Z16	X17	Y17	Z17	X18	Y18	Z18	X19	Y19	Z19	X20	Y20	Z20	X21	Y21	Z21	X22	Y22	Z22	X23	Y23	Z23	X24	Y24	Z24	X25	Y25	Z25	X26	Y26	Z26	X27	Y27	Z27	X28	Y28	Z28	X29	Y29	Z29	X30	Y30	Z30	X31	Y31	Z31	X32	Y32	Z32	X33	Y33	Z33	X34	Y34	Z34	X35	Y35	Z35	X36	Y36	Z36	X37	Y37	Z37	X38	Y38	Z38	X39	Y39	Z39	X40	Y40	Z40	X41	Y41	Z41	X42	Y42	Z42	X43	Y43	Z43	X44	Y44	Z44	X45	Y45	Z45	X46	Y46	Z46	X47	Y47	Z47	X48	Y48	Z48	X49	Y49	Z49	X50	Y50	Z50	X51	Y51	Z51	X52	Y52	Z52	X53	Y53	Z53	X54	Y54	Z54	

1	0	151.6381225585938	313.691162109375	1713.888671875	88.70250701904297	239.0562744140625	1665.845947265625	93.89329528808594	386.4942626953125	1667.929931640625	-50.02608489990234	325.3744812011719	1500.026245117188	-133.19287109375	268.7005310058594	1303.548461914062	-119.704475402832	407.1355285644531	1309.467163085938	120.4211807250977	312.2799072265625	1331.486572265625	9.330284118652344	148.0694427490234	1445.798217773438	-47.51821899414062	63.60159683227539	1287.99658203125	9.22032356262207	48.58430862426758	1200.638061523438	-111.6400604248047	59.19975280761719	1206.79443359375	-66.69628143310547	42.75823211669922	1099.164794921875	-77.73074340820312	122.6871643066406	1093.469848632812	27.30936241149902	27.31917190551758	913.7344360351562	67.67701721191406	64.49776458740234	845.7894897460938	-3.46290135383606	30.85230255126953	825.5677490234375	62.05108261108398	8.36029052734375	757.7230224609375	43.46726226806641	485.9620971679688	1457.107543945312	39.28738784790039	585.0703735351562	1292.892333984375	104.8076400756836	574.7952880859375	1215.124389648438	-10.4959659576416	618.5531005859375	1213.18798828125	53.55663299560547	620.2727661132812	1111.463623046875	-4.703346252441406	569.1773071289062	1099.60107421875	185.8779907226562	576.1739501953125	958.9288940429688	223.7045440673828	516.6929931640625	909.1157836914062	189.3892669677734	581.3866577148438	874.6672973632812	272.8905334472656	555.0196533203125	836.5526733398438	27.55909156799316	147.7648620605469	1052.37353515625	-106.4672927856445	302.2101135253906	1022.038024902344	2.435523748397827	490.1304016113281	1044.051513671875	1.796698212623596	129.3921813964844	897.8206176757812	110.2737808227539	152.3901977539062	629.9364013671875	159.2571716308594	148.3221893310547	662.43701171875	193.9913177490234	187.1259613037109	567.6722412109375	131.1703796386719	176.1034545898438	553.2319946289062	205.0500030517578	177.6817321777344	339.1353149414062	263.5014953613281	192.8434906005859	343.1117553710938	293.5103149414062	213.7490081787109	264.2368469238281	233.2715911865234	202.2664947509766	243.4635162353516	284.5473937988281	295.8843078613281	38.02348709106445	452.0479125976562	222.7131500244141	66.11826324462891	482.9225463867188	310.4816589355469	112.4894561767578	-43.11833190917969	485.4653015136719	939.2431030273438	-27.67105674743652	470.1455078125	648.7567138671875	-76.13083648681641	479.8220825195312	681.1228637695312	-110.8041152954102	443.6883544921875	586.67431640625	-48.15564346313477	443.1948547363281	574.1703491210938	-176.6381378173828	417.22705078125	324.65087890625	-236.9698944091797	413.4554748535156	324.7486877441406	-267.2965087890625	391.8161010742188	245.1228790283203	-204.8702697753906	388.9766845703125	229.6928100585938	-357.975830078125	306.8288269042969	73.50007629394531	-192.6895599365234	382.9814758300781	18.00937843322754	-150.6911315917969	283.217041015625	33.50352478027344	
2	0.004	156.9899749755859	313.3203735351562	1712.8974609375	94.15642547607422	238.4726715087891	1664.874145507812	99.12451934814453	385.9935607910156	1667.027221679688	-44.60877227783203	325.2012329101562	1499.020263671875	-127.5553512573242	268.604248046875	1302.685791015625	-114.0227584838867	406.8829650878906	1308.600341796875	126.1332626342773	312.0816345214844	1330.767944335938	14.82377910614014	147.7998352050781	1444.759399414062	-41.86605072021484	63.58920669555664	1286.692504882812	14.87172603607178	48.60609436035156	1199.532348632812	-105.847282409668	59.99208450317383	1205.5478515625	-60.98153305053711	43.066650390625	1097.93896484375	-72.11537170410156	123.2641983032227	1092.355224609375	32.80760955810547	27.82301139831543	912.52197265625	72.98245239257812	64.77788543701172	844.375	1.753909945487976	31.22502708435059	824.2717895507812	66.87465667724609	8.780755043029785	756.1634521484375	48.96982574462891	485.8590393066406	1456.340942382812	44.87384796142578	584.7915649414062	1292.18505859375	110.2224731445312	574.6539916992188	1214.324340820312	-4.951385021209717	618.6286010742188	1212.4951171875	59.31439590454102	620.2611694335938	1110.764526367188	1.138559699058533	569.0513916015625	1098.7802734375	191.6086120605469	576.36962890625	958.2346801757812	229.28662109375	517.1287841796875	908.4811401367188	195.3036193847656	581.6812744140625	873.9840698242188	278.6993713378906	555.33935546875	835.8848266601562	33.33620834350586	147.4476776123047	1051.005493164062	-100.7135238647461	302.271728515625	1020.973083496094	8.192508697509766	490.1307373046875	1043.082275390625	7.601266860961914	129.6168212890625	896.98583984375	116.6572265625	152.8339691162109	629.1564331054688	165.7327880859375	148.6156158447266	661.83251953125	200.5152282714844	188.1611633300781	567.2958984375	137.8889312744141	176.5554351806641	552.7867431640625	212.3672027587891	178.6143951416016	338.6710510253906	270.7125854492188	193.7642211914062	342.7344665527344	300.7075805664062	215.1631622314453	263.8575744628906	240.654052734375	203.3848724365234	242.9420471191406	292.1878356933594	297.5054931640625	37.81105041503906	459.6422119140625	224.3590393066406	66.25148773193359	490.3727722167969	311.8348999023438	112.9404220581055	-37.53353881835938	485.4967956542969	938.39794921875	-22.35449409484863	470.5025634765625	647.8368530273438	-71.15242004394531	480.4367370605469	680.5597534179688	-105.9887390136719	444.1994323730469	586.05078125	-43.22045516967773	443.4039306640625	573.611572265625	-173.6972503662109	417.9049682617188	324.6311950683594	-233.9489288330078	413.9559631347656	325.3072814941406	-264.9529418945312	392.2128601074219	246.28857421875	-203.1135711669922	389.1521301269531	229.9388885498047	-357.3908996582031	307.4848022460938	75.24306488037109	-192.6381225585938	382.9314270019531	17.97152709960938	-150.6397705078125	283.0885009765625	33.35538482666016	
3	0.008	162.3871765136719	313.0195922851562	1712.206176757812	99.68705749511719	237.9349060058594	1664.1484375	104.2976684570312	385.7775268554688	1666.321166992188	-39.1370849609375	324.8098754882812	1498.082275390625	-121.7992935180664	268.4790344238281	1301.755737304688	-108.5558471679688	406.6497802734375	1307.649780273438	131.7509765625	311.9957275390625	1329.93603515625	20.46919250488281	147.4664611816406	1443.719482421875	-36.19392776489258	63.55841064453125	1285.63720703125	20.54326820373535	48.79590225219727	1198.290771484375	-100.2563629150391	59.72005081176758	1204.453125	-55.30068206787109	43.39640426635742	1096.77099609375	-66.00724029541016	123.2031555175781	1091.128173828125	38.182861328125	28.05081176757812	911.0216064453125	78.44718170166016	65.06785583496094	842.8768920898438	7.119069576263428	31.81473731994629	822.9995727539062	71.90484619140625	9.313340187072754	754.698974609375	54.39196395874023	485.7450256347656	1455.682373046875	50.58518981933594	584.481689453125	1291.479248046875	116.0329132080078	574.5009155273438	1213.685302734375	0.9076695442199707	618.3988647460938	1211.758178710938	65.05140686035156	620.173828125	1110.116821289062	6.780147552490234	568.9279174804688	1098.1201171875	197.3265380859375	576.4779052734375	957.5621337890625	235.2554321289062	517.3285522460938	907.753662109375	201.06689453125	582.0912475585938	873.3243408203125	284.4297180175781	555.708740234375	835.2037963867188	39.28786849975586	147.6538848876953	1050.594116210938	-94.94992828369141	302.3145751953125	1019.939697265625	13.09884071350098	490.5617980957031	1042.23486328125	13.69061851501465	129.6475524902344	896.1358032226562	123.2223510742188	153.3992767333984	628.5465698242188	172.0373687744141	149.3549346923828	661.3811645507812	207.2763519287109	188.9716644287109	567.3209228515625	144.6012420654297	177.3879852294922	552.1468505859375	219.4470672607422	179.6430206298828	338.0233459472656	277.7541198730469	195.0015563964844	342.0740051269531	307.8031616210938	216.5323791503906	263.3619384765625	247.7163238525391	204.4118804931641	242.4259033203125	298.9586181640625	299.7452392578125	37.60748291015625	466.6765747070312	225.660400390625	66.239501953125	497.4067077636719	313.132568359375	112.9695358276367	-31.89788818359375	485.5713500976562	937.4910888671875	-17.30033111572266	470.9605407714844	647.2037963867188	-65.69667816162109	480.6911926269531	680.0006713867188	-100.9779586791992	444.6531372070312	585.5816040039062	-38.20500946044922	443.96826171875	573.0569458007812	-170.587646484375	418.2420349121094	324.7786865234375	-231.0112915039062	414.512939453125	325.9460144042969	-262.5955505371094	392.4286499023438	246.9768524169922	-200.7798309326172	389.9291076660156	230.0935821533203	-356.8083190917969	307.9478149414062	77.02790069580078	-192.64013671875	382.9031982421875	17.94674873352051	-151.4629821777344	282.6247253417969	32.71079635620117	
4	0.012	167.80859375	312.5821228027344	1711.49365234375	105.0738143920898	237.6361083984375	1663.166259765625	109.7444076538086	385.2722778320312	1665.486938476562	-33.55236053466797	324.4966125488281	1497.117065429688	-116.1871109008789	268.2919921875	1300.819213867188	-103.0297012329102	406.4295043945312	1306.820922851562	137.4718475341797	311.9576416015625	1329.263305664062	26.09709167480469	147.1746826171875	1442.762329101562	-30.48096466064453	63.51652145385742	1284.498291015625	26.31991004943848	48.65798950195312	1197.137573242188	-94.49941253662109	59.75801849365234	1203.199584960938	-49.33788299560547	43.43575668334961	1095.472412109375	-60.2730712890625	123.657470703125	1090.211547851562	43.65340423583984	28.46487426757812	909.86962890625	83.84654998779297	65.45360565185547	841.6360473632812	12.44612121582031	32.23551559448242	821.8033447265625	76.86849212646484	9.213842391967773	753.381103515625	59.81525802612305	485.4898681640625	1454.998168945312	56.06240081787109	584.45947265625	1290.767333984375	121.7063980102539	574.36865234375	1213.113525390625	6.459077835083008	618.2266845703125	1211.064331054688	70.79383087158203	620.0639038085938	1109.449462890625	12.46337509155273	568.9744262695312	1097.530517578125	203.1244201660156	576.64501953125	956.9429931640625	241.0558776855469	517.3513793945312	906.7523193359375	206.7250518798828	582.4747314453125	872.6721801757812	290.1233215332031	556.0774536132812	834.4913940429688	44.9235954284668	147.8459625244141	1049.566772460938	-88.89635467529297	302.3445739746094	1018.998352050781	18.73518753051758	490.4589233398438	1041.27392578125	19.66138458251953	129.8381042480469	895.132568359375	129.9409637451172	153.9136199951172	627.914794921875	178.6606292724609	150.1447448730469	661.0751953125	214.0133209228516	189.7487182617188	567.1925659179688	151.5349426269531	178.2092895507812	551.7009887695312	226.5152587890625	180.3036041259766	337.499267578125	284.6728515625	196.7495422363281	341.441650390625	314.7356872558594	217.2984771728516	262.9797058105469	254.6041717529297	205.3319702148438	242.1461029052734	305.9556274414062	300.54833984375	36.76551818847656	473.2991027832031	227.0618438720703	65.80213928222656	503.9743347167969	314.56298828125	112.5581283569336	-26.25799751281738	485.7775268554688	936.8330078125	-12.01789283752441	471.3227844238281	646.6040649414062	-60.6135368347168	481.3654174804688	679.5284423828125	-96.02924346923828	445.205078125	585.1467895507812	-33.16984558105469	444.1924438476562	572.3369140625	-167.1969299316406	418.5431213378906	324.87109375	-227.6316833496094	415.1572570800781	326.3846435546875	-260.2545776367188	393.3417053222656	247.7943725585938	-198.6350250244141	390.2928161621094	230.7644195556641	-356.2947692871094	308.7391052246094	79.01630401611328	-192.6170043945312	382.8461608886719	17.93613815307617	-151.4522552490234	282.5631408691406	32.64677429199219	
